<svg xmlns="http://www.w3.org/2000/svg" viewBox="0 0 32 32" id="android-studio">
  <path d="M23.839 25.065C26.382 22.863 28 19.62 28 16c0-6.617-5.383-12-12-12S4 9.383 4 16c0 3.62 1.618 6.863 4.161 9.065l-1.018 1.697a.997.997 0 0 0-.143.515v.914a.5.5 0 0 0 .724.447l1.016-.508c.17-.085.312-.217.41-.38l.831-1.385C11.753 27.398 13.805 28 16 28s4.247-.602 6.019-1.635l.831 1.386c.098.163.24.295.41.38l1.016.508a.5.5 0 0 0 .724-.448v-.914a.991.991 0 0 0-.143-.514l-1.018-1.698zM16 26a9.924 9.924 0 0 1-4.991-1.348l1.034-1.724A7.931 7.931 0 0 0 16 24a7.941 7.941 0 0 0 3.964-1.06l1.028 1.713A9.94 9.94 0 0 1 16 26zm-1.229-7.618.675.45a.995.995 0 0 0 1.109 0l.675-.45 1.707 2.845c-.87.49-1.87.773-2.937.773a5.948 5.948 0 0 1-2.931-.782l1.702-2.836zM14 14a2 2 0 1 1 3.999-.001A2 2 0 0 1 14 14zm8.791 9.319-1.054-1.757A7.965 7.965 0 0 0 24 16a1 1 0 0 0-2 0 5.973 5.973 0 0 1-1.338 3.77l-1.575-2.625.468-.312c.278-.187.445-.499.445-.833v-4a1 1 0 0 0-1-1h-1V9a1 1 0 0 0-1-1h-2a1 1 0 0 0-1 1v2h-1a1 1 0 0 0-1 1v4c0 .334.167.646.445.832l.468.312-3.705 6.175C7.241 21.492 6 18.891 6 16c0-5.514 4.486-10 10-10s10 4.486 10 10c0 2.891-1.241 5.492-3.209 7.319z"></path>
</svg>
