<svg xmlns="http://www.w3.org/2000/svg" viewBox="0 0 24 24" id="dot-net">
  <path fill="#00AEEF" d="M0 15.808v.009c0 .187.075.356.197.478a.643.643 0 0 0 .47.205H.681a.657.657 0 0 0 .476-.204.673.673 0 0 0 .202-.481V15.806a.683.683 0 0 0-.201-.485.65.65 0 0 0-.478-.209H.653a.638.638 0 0 0-.456.209.684.684 0 0 0-.197.482v.005zM16.915 8.442v-.94l-4.434-.001v8.877h4.65l.005-.974h-3.608v-3.077h3.157v-.935h-3.157v-2.95zM4.464 9.309l-.007-.011zM24 7.501h-6.081v.94h2.515v7.937h1.022V8.441H24zM4.19 9.961a9.284 9.284 0 0 0-.053-1.26l.004.042h.038c.081.213.175.395.285.566l4.49 7.069h1.257V7.5H9.189v6.243l-.002.202c0 .389.023.772.068 1.149l-.004-.046h-.023a9.115 9.115 0 0 0-.355-.594L4.496 7.501H3.167v8.877H4.19V9.961z"></path>
</svg>
