<svg xmlns="http://www.w3.org/2000/svg" id="sql" viewBox="0 0 64 64">
  <path d="M20.25 18.94c.9.04 1.81.06 2.75.06s1.85-.02 2.75-.06c.55-.02.98-.49.95-1.04-.03-.55-.49-.98-1.04-.95-1.74.08-3.57.08-5.31 0-.54-.02-1.02.4-1.04.95s.4 1.02.95 1.04ZM20.25 32.94c.9.04 1.81.06 2.75.06s1.85-.02 2.75-.06c.55-.02.98-.49.95-1.04-.03-.55-.49-.97-1.04-.95-1.74.08-3.57.08-5.31 0-.54 0-1.02.4-1.04.95s.4 1.02.95 1.04Z" style="stroke-width:0"></path>
  <path d="M23,40c-11,0-17-2.64-17-4,0-.23.21-.53.58-.83,3.47,1.87,9.97,2.83,16.42,2.83s12.95-.96,16.42-2.83c.36.3.58.6.58.83,0,.12-.05.26-.16.4-.33.44-.24,1.07.2,1.4.18.13.39.2.6.2.3,0,.6-.14.8-.4.37-.49.56-1.04.56-1.6s-.19-1.26-.92-2.02c.59-.6.92-1.26.92-1.98v-10c0-.54-.19-1.26-.92-2.01.59-.6.92-1.26.92-1.99v-10c0-3.94-9.56-6-19-6S4,4.06,4,8v10c0,.73.33,1.39.92,1.99-.73.75-.92,1.48-.92,2.01v10c0,.73.33,1.39.92,1.98-.73.75-.92,1.48-.92,2.02v10c0,3.94,9.56,6,19,6,.55,0,1-.45,1-1s-.45-1-1-1c-11,0-17-2.64-17-4v-7.18c3.29,2.09,10.16,3.18,17,3.18.55,0,1-.45,1-1s-.45-1-1-1ZM23,4c11,0,17,2.64,17,4s-6,4-17,4S6,9.36,6,8s6-4,17-4ZM6,10.82c3.29,2.09,10.16,3.18,17,3.18s13.71-1.09,17-3.18v7.18c0,1.36-6,4-17,4s-17-2.64-17-4v-7.18ZM6.58,21.17c3.47,1.87,9.97,2.83,16.42,2.83s12.95-.96,16.42-2.83c.37.3.58.6.58.83,0,1.36-6,4-17,4s-17-2.64-17-4c0-.23.21-.53.58-.83ZM6,24.82c3.29,2.09,10.16,3.18,17,3.18s13.71-1.09,17-3.18v7.18c0,1.36-6,4-17,4s-17-2.64-17-4v-7.18Z" style="stroke-width:0"></path>
  <path d="M23 45c-.9 0-1.79-.02-2.65-.06-.54-.01-1.02.4-1.04.95-.02.55.4 1.02.95 1.04.9.04 1.81.06 2.75.06.55 0 1-.45 1-1s-.45-1-1-1ZM33 48h4c.55 0 1-.45 1-1s-.45-1-1-1h-4c-1.65 0-3 1.35-3 3s1.35 3 3 3h2c.55 0 1 .45 1 1s-.45 1-1 1h-4c-.55 0-1 .45-1 1s.45 1 1 1h4c1.65 0 3-1.35 3-3s-1.35-3-3-3h-2c-.55 0-1-.45-1-1s.45-1 1-1ZM45 46h-2c-1.65 0-3 1.35-3 3v4c0 1.65 1.35 3 3 3h2l1.2 1.6c.2.26.5.4.8.4.21 0 .42-.06.6-.2.44-.33.53-.96.2-1.4l-.85-1.14c.64-.55 1.05-1.36 1.05-2.26v-4c0-1.65-1.35-3-3-3ZM46 53c0 .25-.1.48-.26.66l-.94-1.26c-.33-.44-.96-.53-1.4-.2-.44.33-.53.96-.2 1.4l.3.4h-.5c-.55 0-1-.45-1-1v-4c0-.55.45-1 1-1h2c.55 0 1 .45 1 1v4ZM55 54h-3v-7c0-.55-.45-1-1-1s-1 .45-1 1v8c0 .55.45 1 1 1h4c.55 0 1-.45 1-1s-.45-1-1-1Z" style="stroke-width:0"></path>
  <path d="M57,40h-28c-1.65,0-3,1.35-3,3v16c0,1.65,1.35,3,3,3h28c1.65,0,3-1.35,3-3v-16c0-1.65-1.35-3-3-3ZM58,59c0,.55-.45,1-1,1h-28c-.55,0-1-.45-1-1v-16c0-.55.45-1,1-1h28c.55,0,1,.45,1,1v16Z" style="stroke-width:0"></path>
</svg>
